<?xml version="1.0" standalone="no"?><!DOCTYPE svg PUBLIC "-//W3C//DTD SVG 1.1//EN" "http://www.w3.org/Graphics/SVG/1.1/DTD/svg11.dtd"><svg t="1707578308754" class="icon" viewBox="0 0 1024 1024" version="1.1" xmlns="http://www.w3.org/2000/svg" p-id="12203" width="32" height="32" xmlns:xlink="http://www.w3.org/1999/xlink"><path d="M128 192m64 0l640 0q64 0 64 64l0 0q0 64-64 64l-640 0q-64 0-64-64l0 0q0-64 64-64Z" fill="#f2f2f2" p-id="12204"></path><path d="M128 448m64 0l640 0q64 0 64 64l0 0q0 64-64 64l-640 0q-64 0-64-64l0 0q0-64 64-64Z" fill="#f2f2f2" p-id="12205"></path><path d="M128 704m64 0l640 0q64 0 64 64l0 0q0 64-64 64l-640 0q-64 0-64-64l0 0q0-64 64-64Z" fill="#f2f2f2" p-id="12206"></path></svg>
