<svg width="250" height="225" viewBox="0 0 250 225" fill="none" xmlns="http://www.w3.org/2000/svg">
<path id="Vector" d="M225 225C231.63 225 237.989 222.366 242.677 217.678C247.366 212.989 250 206.63 250 200V138.95C250 132.32 247.366 125.961 242.677 121.272C237.989 116.584 231.63 113.95 225 113.95H190.3C190.3 105.167 190.816 96.3833 191.85 87.6C193.4 78.3 195.983 70.0333 199.6 62.8C203.216 55.5667 207.875 49.875 213.575 45.725C219.241 41.075 226.475 38.75 235.275 38.75V0C220.808 0 208.141 3.1 197.275 9.3C186.483 15.4219 177.212 23.8989 170.15 34.1C163.04 45.3287 157.805 57.6396 154.65 70.55C151.459 84.7936 149.899 99.3538 150 113.95V200C150 206.63 152.634 212.989 157.322 217.678C162.01 222.366 168.369 225 175 225H225ZM74.9997 225C81.6301 225 87.9889 222.366 92.6773 217.678C97.3658 212.989 99.9997 206.63 99.9997 200V138.95C99.9997 132.32 97.3658 125.961 92.6773 121.272C87.9889 116.584 81.6301 113.95 74.9997 113.95H40.2997C40.2997 105.167 40.8163 96.3833 41.8497 87.6C43.4163 78.3 45.9997 70.0333 49.5997 62.8C53.2163 55.5667 57.8747 49.875 63.5747 45.725C69.2413 41.075 76.4747 38.75 85.2747 38.75V0C70.808 0 58.1413 3.1 47.2747 9.3C36.4832 15.4219 27.2115 23.8989 20.1497 34.1C13.0399 45.3287 7.80486 57.6396 4.64968 70.55C1.45926 84.7936 -0.100764 99.3538 -0.000325446 113.95V200C-0.000325446 206.63 2.63359 212.989 7.322 217.678C12.0104 222.366 18.3693 225 24.9997 225H74.9997Z" fill="#5AEB46"/>
</svg>
