<svg width="163" height="185" viewBox="0 0 163 185" fill="none" xmlns="http://www.w3.org/2000/svg">
<rect width="94.1081" height="94.1081" rx="20" transform="matrix(0.866025 0.5 0 1 0 43.4623)" fill="url(#paint0_linear_3_34)"/>
<rect width="94.1081" height="75.2865" rx="20" transform="matrix(0.866025 -0.5 0 1 81.5 99.9271)" fill="url(#paint1_linear_3_34)"/>
<rect width="75.2865" height="94.1081" rx="20" transform="matrix(0.866025 0.5 -0.866025 0.5 89.65 1.11368)" fill="url(#paint2_linear_3_34)"/>
<path d="M2.38708 47.5968C5.63789 45.72 10.1526 47.0115 13.4034 45.1347L84.3966 4.1467C86.7314 2.79868 86.2219 -0.805235 83.8871 0.542785L2.38708 47.5968Z" fill="url(#paint3_linear_3_34)"/>
<path d="M88.8366 95.6914C85.5759 97.574 80.9955 95.1553 79.1129 91.8946C77.2303 88.6339 77.4259 83.4578 80.6866 81.5752L147.513 42.9927C152.053 40.3716 157.992 40.3006 160.613 44.8405C163.234 49.3804 160.203 54.4878 155.663 57.1089L88.8366 95.6914Z" fill="url(#paint4_linear_3_34)"/>
<path d="M79.1129 180.49C82.3637 178.613 83.5026 174.057 86.7534 172.181L157.747 131.193C160.081 129.845 162.948 132.088 160.613 133.436L79.1129 180.49Z" fill="url(#paint5_linear_3_34)"/>
<defs>
<linearGradient id="paint0_linear_3_34" x1="0" y1="0" x2="106.63" y2="17.409" gradientUnits="userSpaceOnUse">
<stop stop-color="#93AEFC"/>
<stop offset="1" stop-color="#B193FC"/>
</linearGradient>
<linearGradient id="paint1_linear_3_34" x1="-2.8826e-05" y1="-0.0689235" x2="79.5667" y2="-13.1168" gradientUnits="userSpaceOnUse">
<stop stop-color="#A244D7"/>
<stop offset="1" stop-color="#8865E1"/>
</linearGradient>
<linearGradient id="paint2_linear_3_34" x1="75.2572" y1="94.1314" x2="-19.062" y2="26.5636" gradientUnits="userSpaceOnUse">
<stop stop-color="#FAD5FF"/>
<stop offset="1" stop-color="#CFBDFD"/>
</linearGradient>
<linearGradient id="paint3_linear_3_34" x1="89.616" y1="48.1796" x2="44.0659" y2="-25.715" gradientUnits="userSpaceOnUse">
<stop stop-color="#FAD5FF"/>
<stop offset="1" stop-color="#CFBDFD"/>
</linearGradient>
<linearGradient id="paint4_linear_3_34" x1="73.3499" y1="38.7009" x2="148.411" y2="24.2691" gradientUnits="userSpaceOnUse">
<stop stop-color="#A244D7"/>
<stop offset="1" stop-color="#8865E1"/>
</linearGradient>
<linearGradient id="paint5_linear_3_34" x1="79.1129" y1="128.112" x2="148.861" y2="113.444" gradientUnits="userSpaceOnUse">
<stop stop-color="#A244D7"/>
<stop offset="1" stop-color="#8865E1"/>
</linearGradient>
</defs>
</svg>
