<svg width="87" height="120" viewBox="0 0 87 120" fill="none" xmlns="http://www.w3.org/2000/svg">
<circle cx="40" cy="40" r="40" transform="matrix(0.866025 0.5 0 1 0 0)" fill="url(#paint0_linear_4_48)"/>
<path d="M10.1462 17.5735C15.772 14.3254 22.8516 14.6182 30.1757 17.7537C33.02 18.9713 36.2917 19.047 38.9712 17.5C44.7447 14.1667 44.5028 5.72744 37.8492 5.31019C34.0835 5.07404 30.5559 5.78997 27.4667 7.57355L10.1462 17.5735Z" fill="url(#paint1_linear_4_48)"/>
<path d="M82.2724 72.5C76.4989 75.8333 68.9318 71.6276 67.2204 65.1843C63.7284 52.0377 56.0803 38.7907 46.441 29.1933C41.7167 24.4895 41.8579 15.8333 47.6314 12.5C50.3109 10.953 53.6415 10.9097 56.1563 12.7121C71.9347 24.021 84.4466 45.6922 86.3512 65.0112C86.6547 68.0903 84.9519 70.953 82.2724 72.5Z" fill="url(#paint2_linear_4_48)"/>
<path d="M59.136 102.426C64.7619 99.1783 68.0481 92.9009 68.9948 84.9903C69.3624 81.9182 70.9327 79.047 73.6122 77.5C79.3857 74.1667 86.5733 78.5957 83.6079 84.5665C81.9295 87.9458 79.5457 90.6428 76.4565 92.4264L59.136 102.426Z" fill="url(#paint3_linear_4_48)"/>
<defs>
<linearGradient id="paint0_linear_4_48" x1="0" y1="0" x2="90.645" y2="14.7992" gradientUnits="userSpaceOnUse">
<stop stop-color="#FCE193"/>
<stop offset="1" stop-color="#DEFC93"/>
</linearGradient>
<linearGradient id="paint1_linear_4_48" x1="51.9453" y1="20.0036" x2="41.3176" y2="-7.00592" gradientUnits="userSpaceOnUse">
<stop stop-color="#DAFFD5"/>
<stop offset="1" stop-color="#EBFDBD"/>
</linearGradient>
<linearGradient id="paint2_linear_4_48" x1="86.5823" y1="80.0173" x2="18.2634" y2="34.6049" gradientUnits="userSpaceOnUse">
<stop stop-color="#DAFFD5"/>
<stop offset="1" stop-color="#EBFDBD"/>
</linearGradient>
<linearGradient id="paint3_linear_4_48" x1="59.136" y1="69.9703" x2="82.6921" y2="67.3527" gradientUnits="userSpaceOnUse">
<stop stop-color="#79D744"/>
<stop offset="1" stop-color="#BEE165"/>
</linearGradient>
</defs>
</svg>
