<svg width="31" height="30" viewBox="0 0 31 30" fill="none" xmlns="http://www.w3.org/2000/svg">
<g clip-path="url(#clip0_4_62)">
<path d="M21.125 15H26.75C26.9986 15 27.2371 15.0988 27.4129 15.2746C27.5887 15.4504 27.6875 15.6889 27.6875 15.9375V23.4375C27.6875 23.6861 27.5887 23.9246 27.4129 24.1004C27.2371 24.2762 26.9986 24.375 26.75 24.375H4.25C4.00136 24.375 3.7629 24.2762 3.58709 24.1004C3.41127 23.9246 3.3125 23.6861 3.3125 23.4375V15.9375C3.3125 15.6889 3.41127 15.4504 3.58709 15.2746C3.7629 15.0988 4.00136 15 4.25 15H9.875" stroke="#D0BFFF" stroke-width="1.5" stroke-linecap="round" stroke-linejoin="round"/>
<path d="M15.5 15V2.8125" stroke="#D0BFFF" stroke-width="1.5" stroke-linecap="round" stroke-linejoin="round"/>
<path d="M9.875 8.4375L15.5 2.8125L21.125 8.4375" stroke="#D0BFFF" stroke-width="1.5" stroke-linecap="round" stroke-linejoin="round"/>
<path d="M22.5312 20.8594C23.1785 20.8594 23.7031 20.3347 23.7031 19.6875C23.7031 19.0403 23.1785 18.5156 22.5312 18.5156C21.884 18.5156 21.3594 19.0403 21.3594 19.6875C21.3594 20.3347 21.884 20.8594 22.5312 20.8594Z" fill="#D0BFFF"/>
</g>
<defs>
<clipPath id="clip0_4_62">
<rect width="30" height="30" fill="white" transform="translate(0.5)"/>
</clipPath>
</defs>
</svg>
