<svg width="31" height="30" viewBox="0 0 31 30" fill="none" xmlns="http://www.w3.org/2000/svg">
<g clip-path="url(#clip0_4_70)">
<path d="M15.5 25.0781C16.1472 25.0781 16.6719 24.5535 16.6719 23.9062C16.6719 23.259 16.1472 22.7344 15.5 22.7344C14.8528 22.7344 14.3281 23.259 14.3281 23.9062C14.3281 24.5535 14.8528 25.0781 15.5 25.0781Z" fill="#52FF27"/>
<path d="M27.6875 10.9207C24.2511 8.1024 19.9443 6.56214 15.5 6.56214C11.0557 6.56214 6.74885 8.1024 3.3125 10.9207" stroke="#52FF27" stroke-width="1.5" stroke-linecap="round" stroke-linejoin="round"/>
<path d="M23.9375 15.1172C21.536 13.2161 18.5629 12.1817 15.5 12.1817C12.4371 12.1817 9.46398 13.2161 7.0625 15.1172" stroke="#52FF27" stroke-width="1.5" stroke-linecap="round" stroke-linejoin="round"/>
<path d="M20.1875 19.3359C18.8254 18.3451 17.1843 17.8114 15.5 17.8114C13.8157 17.8114 12.1746 18.3451 10.8125 19.3359" stroke="#52FF27" stroke-width="1.5" stroke-linecap="round" stroke-linejoin="round"/>
</g>
<defs>
<clipPath id="clip0_4_70">
<rect width="30" height="30" fill="white" transform="translate(0.5)"/>
</clipPath>
</defs>
</svg>
